<svg width="24" height="24" viewBox="0 0 24 24" xmlns="http://www.w3.org/2000/svg"><title>Freelancer Annual Membership, Level 5 Badge</title><defs><linearGradient x1="50%" y1="0%" x2="50%" y2="100%" id="a"><stop stop-color="#F6D600" offset="0%"/><stop stop-color="#E59E00" offset="100%"/></linearGradient><filter x="-50%" y="-50%" width="200%" height="200%" filterUnits="objectBoundingBox" id="b"><feOffset dy="1" in="SourceAlpha" result="shadowOffsetOuter1"/><feGaussianBlur stdDeviation=".5" in="shadowOffsetOuter1" result="shadowBlurOuter1"/><feColorMatrix values="0 0 0 0 0 0 0 0 0 0 0 0 0 0 0 0 0 0 0.326539855 0" in="shadowBlurOuter1" result="shadowMatrixOuter1"/><feMerge><feMergeNode in="shadowMatrixOuter1"/><feMergeNode in="SourceGraphic"/></feMerge></filter></defs><g fill="none" fill-rule="evenodd"><path d="M9.565 22.874l-5.78-3.414C2.37 18.626 1.5 17.083 1.5 15.413V8.587c0-1.67.87-3.213 2.284-4.047l5.78-3.414c1.415-.835 3.156-.835 4.57 0l5.78 3.414c1.415.834 2.286 2.377 2.286 4.047v6.826c0 1.67-.87 3.213-2.285 4.047l-5.78 3.414c-1.415.835-3.156.835-4.57 0" stroke="#BD9700" fill="url(#a)"/><g filter="url(#b)" transform="translate(5.5 7.5)" fill="#FFF"><path d="M9.11.095L9.857 1.1 14.297.09M3.578 11.148L6.21 8.552 4.625 6.836M7.35 1.037l1.93.1L8.55.16M2.67 0l.37.824 2.058.103M4.125 5.584l2.16-4.116L0 1.148M6.816 1.496L4.47 5.963l2.084 2.252L8.838 5.96l.73-4.326"/></g></g></svg>
